<svg id="Layer_1" data-name="Layer 1" xmlns="http://www.w3.org/2000/svg" viewBox="0 0 2080 2080"><defs><style>.cls-1{fill:#275439;}.cls-2{font-size:237.36px;fill:#382018;font-family:Montserrat-Bold, Montserrat;font-weight:700;}.cls-3{letter-spacing:-0.36em;}.cls-4,.cls-5,.cls-6,.cls-7,.cls-8,.cls-9{font-family:UniNeueBlack, Uni Neue;font-weight:400;}.cls-4{letter-spacing:-0.01em;}.cls-6{letter-spacing:-0.02em;}.cls-7{letter-spacing:-0.06em;}.cls-8{letter-spacing:0.04em;}.cls-9{letter-spacing:0em;}.cls-10{fill:#256636;stroke:#275439;stroke-miterlimit:10;}</style></defs><path class="cls-1" d="M1347,548.8V820.61a543.91,543.91,0,0,1-16.87,134.85c-.08.38-.19.72-.26,1.06a541.47,541.47,0,0,1-50.74,127.33h0c-1.59,2.87-3.21,5.74-4.83,8.57a544.36,544.36,0,0,1-63.16,87.7q-8.26,9.45-17.1,18.49-14.89,15.53-31.11,29.71a543.23,543.23,0,0,1-87.69,63.16,543.75,543.75,0,0,1-87.7-63.16q-16.2-14.21-31.11-29.71-8.83-9.06-17.1-18.49a543.69,543.69,0,0,1-63.15-87.7c-1.63-2.83-3.25-5.7-4.84-8.57h0a541,541,0,0,1-50.74-127.33c-.08-.34-.19-.68-.27-1.06a543.91,543.91,0,0,1-16.87-134.85V684.71c5.74,0,10.4-2.53,15.91-1.81.08-.38,1.15,2.15,1.23,1.81H803.37V548.8a272.29,272.29,0,0,1,67.88,8.57h0a269.9,269.9,0,0,1,68,27.79V820.61a407,407,0,0,0,23.22,135.91A402.85,402.85,0,0,0,990.2,1018a407.67,407.67,0,0,0,52.89,74.41,401.51,401.51,0,0,0,32.09,32.09,406.74,406.74,0,0,0,135.9-303.9V585.16a270.21,270.21,0,0,1,68-27.79h0A272.21,272.21,0,0,1,1347,548.8Z"/><text class="cls-2" transform="translate(251.53 1487.35)"><tspan class="cls-3"> </tspan><tspan x="-18.28" y="0"> </tspan><tspan class="cls-4" x="48.89" y="0">U</tspan><tspan class="cls-5" x="209.34" y="0">nique</tspan><tspan class="cls-6" x="804.63" y="0"> </tspan><tspan class="cls-7" x="846.41" y="0">V</tspan><tspan class="cls-5" x="995.47" y="0">a</tspan><tspan class="cls-8" x="1122.22" y="0">l</tspan><tspan class="cls-9" x="1211.46" y="0">ley</tspan></text><path class="cls-1" d="M824.07,896.68,970,746l101.71,102.46,48.23-45.18,11.91,42.18c.42,1.48.89,2.95,1.42,4.39,3.14,8.58,6.26,15,29,32.66,106.32,82.54,56.5,107.89,3.64,146h0s4-16.26-25.36-33.65c-29.52-17.48-45.71-15.82-50-21.35s-4.27-13.81,16.82-18.33,56.76-7.61,63.81-18.08c1.72-2.55,1.92-5.12-3-9.75s-10.63-6.08-13.64-9.34,23.36-4.77,23.36-4.77-46,.25-46,4,17.78,7.75,22.6,10c5.22,2.47,5.22,8.39-3,10.55-4.31,1.13-63.64,10.18-74.84,11.8-11.47,1.66-33,6.14-38.43,12.31-5.63,6.37-4.52,13.31,2.26,18.08s19.34,13.31,17.83,21.85-8.54,14.06-17.58,17.83-42.57,15.57-67.81-3.64S930,979.54,932.66,940.36,959,859,965.82,846.18s14.31-28.63,14.31-41.81-10.55-54.63-10.55-54.63Z"/><line class="cls-10" x1="1119.42" y1="803.72" x2="1243.04" y2="935.61"/><polyline class="cls-1" points="1299.6 729.93 1163.72 849.14 1212.37 806.46 1267.41 806.46 1216.59 906.43 1162.26 848.46"/></svg>